PathFileType	4	(x/y/z)	S10_P20_T22
DataRate	CameraRate	NumFrames	NumMarkers	Units	OrigDataRate	OrigDataStartFrame	OrigNumFrames
240	240	10	51	mm	240	203	405
Frame#	Time	Sternum			R.Acromium			L.Acromium			Top.Head			R.ASIS			L.ASIS			R.PSIS			L.PSIS			R.Great.Tro			L.Great.Tro			R.Iliac.Crest			L.Iliac.Crest			V.Sacral			R.Thigh.Upper.Post			R.Thigh.Lower.Ant			R.Thigh.Lower.Post			R.Thigh.Upper.Ant			R.Knee.Lat			R.Knee.Med			R.Shank.Upper.Post			R.Shank.Lower.Ant			R.Shank.Lower.Post			R.Shank.Upper.Ant			R.Ankle.Lat			R.Ankle.Med			R.Heel.Upper			R.Heel.Med			R.Heel.Lat			R.Toe.Lat			R.Toe.Med			R.Toe.Tip			L.Thigh.Upper.Post			L.Thigh.Lower.Ant			L.Thigh.Lower.Post			L.Thigh.Upper.Ant			L.Knee.Lat			L.Knee.Med			L.Shank.Upper.Post			L.Shank.Lower.Ant			L.Shank.Lower.Post			L.Shank.Upper.Ant			L.Ankle.Lat			L.Ankle.Med			L.Heel.Upper			L.Heel.Med			L.Heel.Lat			L.Toe.Lat			L.Toe.Med			L.Toe.Tip			Cervical.Spine			Back			
		X1	Y1	Z1	X2	Y2	Z2	X3	Y3	Z3	X4	Y4	Z4	X5	Y5	Z5	X6	Y6	Z6	X7	Y7	Z7	X8	Y8	Z8	X9	Y9	Z9	X10	Y10	Z10	X11	Y11	Z11	X12	Y12	Z12	X13	Y13	Z13	X14	Y14	Z14	X15	Y15	Z15	X16	Y16	Z16	X17	Y17	Z17	X18	Y18	Z18	X19	Y19	Z19	X20	Y20	Z20	X21	Y21	Z21	X22	Y22	Z22	X23	Y23	Z23	X24	Y24	Z24	X25	Y25	Z25	X26	Y26	Z26	X27	Y27	Z27	X28	Y28	Z28	X29	Y29	Z29	X30	Y30	Z30	X31	Y31	Z31	X32	Y32	Z32	X33	Y33	Z33	X34	Y34	Z34	X35	Y35	Z35	X36	Y36	Z36	X37	Y37	Z37	X38	Y38	Z38	X39	Y39	Z39	X40	Y40	Z40	X41	Y41	Z41	X42	Y42	Z42	X43	Y43	Z43	X44	Y44	Z44	X45	Y45	Z45	X46	Y46	Z46	X47	Y47	Z47	X48	Y48	Z48	X49	Y49	Z49	X50	Y50	Z50	X51	Y51	Z51	

203	0.84167	-267.67	1295.4	324.21	-361.63	1455.6	491.24	-413.44	1479.2	196.41	-413.04	1770.2	362.47	-317.66	1016.9	447.2	-335.87	1041.8	217.32	-523.34	1049	377.56	-525.27	1057	297.35	-388.9	939.48	523.13	-397.73	984.06	161.38	-404.03	1100.4	499.9	-405.99	1114.9	196.2	-547.03	1019.5	342.85	-399.04	726	501.99	-354.03	645.71	456.79	-415.41	639.03	487.53	-334.9	734.43	467.84	-438.68	517.1	443.49	-453.2	528.23	317.16	-544.44	304.37	438.7	-491.04	233.33	418.48	-555.24	231.66	429.98	-473.52	308.22	427.11	-555.93	124.22	402.91	-549.65	136.82	326.26	-628.23	79.649	358.03	-620.54	50.04	331.24	-623.58	55.457	392.98	-451.61	39.481	435.91	-423.68	41.799	324.91	-363.48	51.728	366.96	-338.57	703.44	155.43	-242.18	651.96	171.26	-305.96	614.78	175.24	-267.76	737.18	150.97	-256.18	547.72	179.9	-221.04	545.5	306.88	-370.68	363.89	187.66	-329.77	261.58	187.45	-387.4	288.43	194.3	-312.85	336.24	180.69	-392.07	158.87	198.67	-361.43	162.84	279.39	-455.7	145	251.8	-448.8	110.3	283.03	-462.24	115.79	220.58	-303.65	57.765	158.75	-260.84	56.695	259.32	-214.05	58.623	205.94	-461.06	1514.1	365.71	-548.44	1308.3	367.28
204	0.84583	-262.47	1295.3	324.28	-356	1455.7	491.21	-408.36	1479	196.49	-407.83	1770.1	362.18	-312.63	1016.6	447.13	-330.76	1041.9	217.33	-518.3	1049	377.42	-520.19	1057.1	297.21	-384.2	939.19	523.01	-392.48	984.38	161.22	-398.6	1100.1	499.85	-400.77	1115.1	196.26	-541.97	1019.5	342.64	-395.63	725.97	501.81	-351.15	645.41	456.59	-412.53	639.11	487.44	-331.48	734.02	467.59	-436.88	517.3	443.57	-451.45	528.48	317.16	-543.46	304.96	438.81	-490.31	233.76	418.61	-554.48	232.3	430.14	-472.55	308.61	427.3	-555.49	124.79	403.01	-549.08	137.3	326.38	-627.89	80.456	358.15	-620.29	50.896	331.33	-623.36	56.176	393.04	-451.49	39.459	435.94	-423.53	41.846	324.97	-363.32	51.571	367.05	-333.28	703.75	155.5	-237.06	652.11	171.88	-300.88	615.06	175.49	-262.39	737.38	151.43	-250.96	547.76	180.45	-216.65	545.83	307.52	-361.16	360.82	187.53	-317.46	259.67	187.63	-375.85	284.96	194.13	-302.57	334.74	180.89	-376.94	155.21	198.48	-346.61	159.94	279.41	-440.35	139.37	251.4	-432.47	104.87	282.7	-445.84	109.95	220.22	-285.4	56.699	158.91	-242.83	56.975	259.58	-196.01	60.267	206.36	-455.65	1514.1	365.86	-543.16	1308.3	367.74
205	0.85	-257.25	1295.1	324.35	-350.37	1455.8	491.18	-403.26	1478.7	196.56	-402.63	1770	361.89	-307.58	1016.3	447.06	-325.62	1042.1	217.33	-513.25	1048.9	377.25	-515.09	1057.2	297.05	-379.5	938.87	522.87	-387.22	984.65	161.05	-393.17	1099.8	499.78	-395.51	1115.2	196.3	-536.89	1019.5	342.39	-392.19	725.92	501.64	-348.24	645.1	456.4	-409.63	639.18	487.35	-328.03	733.59	467.34	-435.05	517.49	443.64	-449.64	528.73	317.17	-542.46	305.55	438.92	-489.56	234.2	418.75	-553.71	232.95	430.3	-471.55	309.01	427.49	-555.05	125.37	403.11	-548.51	137.78	326.51	-627.54	81.275	358.29	-620.05	51.763	331.42	-623.14	56.906	393.1	-451.36	39.436	435.97	-423.37	41.895	325.04	-363.15	51.421	367.14	-328.11	703.97	155.61	-232.08	652.14	172.5	-295.93	615.26	175.77	-257.13	737.47	151.91	-245.88	547.7	181	-212.38	546.04	308.17	-351.62	357.75	187.39	-305.14	257.83	187.81	-364.26	281.53	193.97	-292.3	333.26	181.1	-361.73	151.69	198.31	-331.75	157.17	279.46	-424.84	133.9	251.01	-416.01	99.64	282.41	-429.28	104.29	219.87	-267.14	55.847	159.12	-224.87	57.466	259.92	-178.05	62.113	206.86	-450.24	1514.1	365.98	-537.87	1308.3	368.16
206	0.85417	-252.02	1294.9	324.41	-344.76	1455.9	491.14	-398.12	1478.5	196.62	-397.42	1769.9	361.6	-302.52	1015.9	446.97	-320.46	1042.1	217.32	-508.18	1048.9	377.05	-509.96	1057.2	296.86	-374.79	938.54	522.73	-381.93	984.87	160.87	-387.75	1099.4	499.7	-390.21	1115.4	196.32	-531.79	1019.5	342.12	-388.72	725.87	501.47	-345.3	644.79	456.22	-406.7	639.24	487.25	-324.56	733.14	467.09	-433.19	517.68	443.72	-447.78	528.97	317.18	-541.43	306.14	439.03	-488.78	234.63	418.91	-552.92	233.61	430.46	-470.52	309.4	427.68	-554.59	125.96	403.22	-547.93	138.26	326.64	-627.19	82.102	358.43	-619.8	52.642	331.52	-622.91	57.647	393.17	-451.23	39.413	436	-423.2	41.943	325.12	-362.98	51.274	367.24	-323.06	704.11	155.75	-227.23	652.05	173.12	-291.11	615.36	176.06	-251.99	737.45	152.41	-240.92	547.56	181.55	-208.25	546.12	308.84	-342.07	354.7	187.25	-292.83	256.1	188.01	-352.63	278.17	193.8	-282.06	331.82	181.32	-346.45	148.33	198.17	-316.86	154.57	279.52	-409.19	128.59	250.64	-399.42	94.617	282.14	-412.59	98.835	219.54	-248.89	55.221	159.4	-206.99	58.175	260.32	-160.2	64.17	207.44	-444.82	1514	366.1	-532.58	1308.2	368.56
207	0.85833	-246.77	1294.6	324.47	-339.16	1455.9	491.09	-392.95	1478.1	196.67	-392.2	1769.7	361.32	-297.44	1015.5	446.87	-315.25	1042.2	217.31	-503.09	1048.8	376.83	-504.81	1057.2	296.64	-370.07	938.18	522.58	-376.63	985.04	160.67	-382.33	1099	499.61	-384.86	1115.5	196.33	-526.67	1019.4	341.82	-385.23	725.79	501.3	-342.34	644.46	456.04	-403.75	639.29	487.16	-321.06	732.68	466.85	-431.29	517.87	443.79	-445.87	529.21	317.2	-540.38	306.74	439.14	-487.98	235.06	419.07	-552.1	234.28	430.62	-469.47	309.78	427.88	-554.13	126.55	403.34	-547.34	138.76	326.78	-626.85	82.94	358.57	-619.55	53.53	331.63	-622.67	58.4	393.24	-451.11	39.389	436.04	-423.03	41.989	325.2	-362.81	51.129	367.34	-318.12	704.16	155.92	-222.52	651.84	173.72	-286.43	615.35	176.36	-246.96	737.32	152.91	-236.08	547.32	182.09	-204.24	546.07	309.51	-332.52	351.66	187.12	-280.53	254.46	188.22	-340.97	274.88	193.64	-271.84	330.43	181.55	-331.12	145.13	198.05	-301.96	152.13	279.61	-393.41	123.48	250.29	-382.75	89.818	281.9	-395.78	93.599	219.23	-230.68	54.833	159.75	-189.21	59.11	260.78	-142.48	66.445	208.1	-439.4	1513.9	366.19	-527.28	1308.2	368.92
208	0.8625	-241.51	1294.3	324.51	-333.57	1455.8	491.04	-387.74	1477.8	196.7	-386.98	1769.4	361.04	-292.34	1015.1	446.77	-310.02	1042.2	217.29	-497.98	1048.6	376.59	-499.62	1057.2	296.4	-365.34	937.8	522.42	-371.3	985.15	160.47	-376.95	1098.6	499.51	-379.46	1115.6	196.33	-521.53	1019.3	341.5	-381.71	725.7	501.14	-339.34	644.12	455.88	-400.77	639.32	487.07	-317.53	732.19	466.62	-429.35	518.06	443.87	-443.9	529.44	317.22	-539.3	307.35	439.25	-487.15	235.49	419.25	-551.27	234.95	430.79	-468.39	310.16	428.07	-553.67	127.15	403.47	-546.76	139.26	326.92	-626.5	83.785	358.72	-619.31	54.428	331.73	-622.43	59.163	393.32	-450.99	39.365	436.08	-422.86	42.033	325.28	-362.64	50.984	367.43	-313.31	704.12	156.1	-217.94	651.51	174.31	-281.88	615.25	176.67	-242.04	737.08	153.41	-231.35	546.98	182.63	-200.35	545.9	310.18	-322.95	348.67	186.99	-268.26	252.93	188.44	-329.3	271.68	193.5	-261.67	329.09	181.79	-315.77	142.11	197.97	-287.07	149.87	279.74	-377.55	118.57	249.96	-366.01	85.256	281.69	-378.89	88.597	218.95	-212.53	54.692	160.17	-171.54	60.275	261.32	-124.9	68.944	208.84	-433.98	1513.8	366.28	-521.97	1308	369.24
209	0.86667	-236.23	1294	324.54	-327.99	1455.7	490.97	-382.5	1477.4	196.72	-381.75	1769.1	360.76	-287.23	1014.6	446.66	-304.74	1042.1	217.27	-492.85	1048.5	376.32	-494.4	1057.2	296.14	-360.59	937.4	522.26	-365.94	985.21	160.26	-371.58	1098.1	499.41	-374.03	1115.7	196.32	-516.37	1019.2	341.16	-378.16	725.6	500.99	-336.32	643.77	455.72	-397.76	639.35	486.98	-313.98	731.69	466.41	-427.36	518.23	443.94	-441.88	529.67	317.24	-538.2	307.97	439.37	-486.29	235.92	419.43	-550.42	235.64	430.95	-467.28	310.54	428.26	-553.19	127.75	403.59	-546.16	139.78	327.06	-626.15	84.639	358.86	-619.06	55.336	331.83	-622.19	59.939	393.4	-450.87	39.342	436.13	-422.69	42.074	325.36	-362.48	50.836	367.53	-308.61	703.99	156.3	-213.49	651.07	174.89	-277.47	615.04	176.97	-237.22	736.72	153.9	-226.73	546.56	183.16	-196.59	545.6	310.86	-313.39	345.72	186.88	-256.03	251.52	188.67	-317.62	268.57	193.38	-251.53	327.81	182.04	-300.4	139.28	197.92	-272.21	147.8	279.89	-361.62	113.87	249.65	-349.24	80.944	281.52	-361.94	83.845	218.7	-194.46	54.807	160.65	-154.02	61.672	261.93	-107.49	71.667	209.66	-428.55	1513.6	366.34	-516.66	1307.9	369.53
210	0.87083	-230.94	1293.6	324.57	-322.42	1455.6	490.89	-377.23	1477	196.73	-376.52	1768.8	360.49	-282.1	1014.1	446.55	-299.44	1042.1	217.24	-487.69	1048.3	376.04	-489.15	1057.1	295.85	-355.83	936.98	522.09	-360.55	985.22	160.03	-366.25	1097.7	499.3	-368.56	1115.8	196.29	-511.19	1019.1	340.79	-374.59	725.47	500.86	-333.27	643.4	455.57	-394.73	639.36	486.88	-310.39	731.17	466.21	-425.33	518.41	444	-439.81	529.9	317.26	-537.06	308.59	439.48	-485.4	236.34	419.63	-549.55	236.32	431.11	-466.14	310.91	428.45	-552.7	128.36	403.72	-545.57	140.31	327.2	-625.8	85.502	359.01	-618.81	56.253	331.93	-621.93	60.726	393.49	-450.76	39.32	436.18	-422.51	42.111	325.45	-362.32	50.683	367.61	-304.02	703.77	156.5	-209.16	650.51	175.44	-273.19	614.73	177.27	-232.52	736.25	154.39	-222.21	546.05	183.67	-192.93	545.18	311.54	-303.83	342.82	186.78	-243.86	250.23	188.93	-305.94	265.57	193.28	-241.44	326.59	182.31	-285.05	136.66	197.92	-257.41	145.93	280.08	-345.66	109.41	249.37	-332.46	76.891	281.39	-344.96	79.355	218.49	-176.5	55.18	161.2	-136.67	63.302	262.61	-90.269	74.614	210.56	-423.12	1513.4	366.39	-511.34	1307.7	369.78
211	0.875	-225.64	1293.1	324.58	-316.85	1455.4	490.79	-371.93	1476.6	196.72	-371.29	1768.4	360.21	-276.96	1013.6	446.44	-294.09	1042	217.2	-482.52	1048	375.73	-483.87	1057	295.55	-351.05	936.54	521.91	-355.13	985.18	159.81	-360.94	1097.2	499.2	-363.05	1115.8	196.25	-505.98	1018.9	340.4	-370.99	725.33	500.73	-330.18	643.01	455.44	-391.66	639.35	486.79	-306.78	730.62	466.02	-423.24	518.57	444.06	-437.68	530.12	317.27	-535.89	309.22	439.58	-484.48	236.76	419.83	-548.65	237.02	431.26	-464.97	311.26	428.64	-552.2	128.97	403.86	-544.97	140.85	327.34	-625.44	86.373	359.16	-618.55	57.18	332.03	-621.67	61.526	393.57	-450.65	39.299	436.23	-422.34	42.145	325.54	-362.16	50.525	367.69	-299.54	703.45	156.71	-204.95	649.84	175.96	-269.04	614.33	177.56	-227.91	735.68	154.85	-217.77	545.46	184.17	-189.38	544.64	312.21	-294.29	339.99	186.71	-231.76	249.07	189.19	-294.29	262.68	193.22	-231.42	325.44	182.58	-269.74	134.24	197.96	-242.68	144.26	280.31	-329.7	105.18	249.13	-315.7	73.105	281.31	-327.99	75.136	218.33	-158.68	55.814	161.82	-119.51	65.162	263.36	-73.268	77.781	211.55	-417.69	1513.2	366.43	-506.02	1307.4	370
212	0.87917	-220.33	1292.6	324.58	-311.3	1455.2	490.69	-366.59	1476.1	196.7	-366.05	1768	359.94	-271.8	1013.1	446.33	-288.71	1041.9	217.16	-477.32	1047.8	375.41	-478.56	1056.8	295.22	-346.26	936.09	521.74	-349.67	985.07	159.57	-355.67	1096.6	499.09	-357.51	1115.8	196.2	-500.75	1018.7	340	-367.36	725.17	500.61	-327.06	642.61	455.31	-388.57	639.33	486.69	-303.14	730.06	465.85	-421.1	518.72	444.12	-435.49	530.33	317.28	-534.68	309.86	439.68	-483.52	237.18	420.04	-547.73	237.72	431.4	-463.75	311.61	428.82	-551.68	129.6	403.99	-544.38	141.41	327.47	-625.08	87.254	359.3	-618.3	58.116	332.12	-621.41	62.339	393.66	-450.54	39.279	436.29	-422.17	42.174	325.63	-362.01	50.361	367.76	-295.16	703.05	156.92	-200.86	649.06	176.45	-265.01	613.82	177.83	-223.41	735	155.3	-213.42	544.79	184.65	-185.93	543.98	312.88	-284.77	337.24	186.66	-219.75	248.03	189.48	-282.67	259.91	193.2	-221.47	324.37	182.87	-254.5	132.03	198.05	-228.05	142.8	280.57	-313.77	101.21	248.94	-299	69.592	281.27	-311.05	71.198	218.21	-141.04	56.706	162.51	-102.56	67.245	264.19	-56.51	81.16	212.61	-412.25	1512.8	366.44	-500.7	1307.1	370.18
